<svg id="Layer_1" data-name="Layer 1" xmlns="http://www.w3.org/2000/svg" xmlns:xlink="http://www.w3.org/1999/xlink" viewBox="0 0 77 18"><defs><style>.cls-1{fill:#e1d8b7;}.cls-2{fill:#fff;}.cls-3{fill:#9fe55c;}</style><symbol id="Logotype" data-name="Logotype" viewBox="0 0 57 14"><polygon points="57 8 57 4 54 4 54 1 50 1 50 4 49 4 49 1 45 1 45 4 42 4 42 6 40 6 40 4 37 4 37 0 33 0 33 4 10 4 10 0 0 0 0 13 1 13 1 14 22 14 22 12 24 12 24 14 49 14 49 13 49 12 50 12 50 13 51 13 51 14 57 14 57 10 54 10 54 8 57 8"/><g id="Logotype_Inverse-2" data-name="Logotype Inverse"><polygon class="cls-1" points="1 1 1 12 2 12 2 13 9 13 9 9 7 9 7 11 3 11 3 3 7 3 7 5 9 5 9 1 1 1"/><path class="cls-1" d="M10,5v8h8V5Zm6,6H12V7h4Z"/><polygon class="cls-1" points="26 6 26 5 19 5 19 13 21 13 21 7 25 7 25 13 27 13 27 6 26 6"/><polygon class="cls-1" points="43 5 43 11 39 11 39 5 37 5 37 12 38 12 38 13 45 13 45 5 43 5"/><polygon class="cls-1" points="46 13 48 13 48 5 46 5 46 13"/><polygon class="cls-1" points="56 7 56 5 53 5 53 2 51 2 51 5 49 5 49 7 51 7 51 12 52 12 52 13 56 13 56 11 53 11 53 7 56 7"/><path class="cls-1" d="M34,1V5H28v8h8V1Zm0,10H30V7h4Z"/><polygon class="cls-1" points="46 4 48 4 48 2 46 2 46 4"/><polygon class="cls-1" points="14 9 14 10 15 10 15 8 13 8 13 9 14 9"/></g><polygon class="cls-2" points="13 8 13 9 14 9 14 10 15 10 15 8 13 8"/><path class="cls-3" d="M46,7"/></symbol><symbol id="Logo" data-name="Logo" viewBox="0 0 16 16"><rect class="cls-1" width="16" height="16"/><polygon points="1 1 1 5 2 5 2 8 6 8 6 10 8 10 8 11 7 11 7 15 11 15 11 14 14 14 14 2 5 2 5 1 1 1"/><polygon class="cls-2" points="7 7 7 8 8 8 8 9 9 9 9 7 7 7"/><polygon class="cls-2" points="2 4 3 4 3 3 4 3 4 2 2 2 2 4"/><polygon class="cls-2" points="10 14 10 13 9 13 9 12 8 12 8 14 10 14"/><polygon class="cls-1" points="5 3 5 5 3 5 3 7 6 7 6 6 10 6 10 10 9 10 9 11 11 11 11 13 13 13 13 3 5 3"/></symbol><symbol id="Logo_Border" data-name="Logo Border" viewBox="0 0 18 18"><rect width="18" height="18"/><use width="16" height="16" transform="translate(1 1)" xlink:href="#Logo"/></symbol></defs><title>conduit-logo</title><use width="57" height="14" transform="translate(20 2)" xlink:href="#Logotype"/><use width="18" height="18" xlink:href="#Logo_Border"/></svg><svg id="Layer_1" data-name="Layer 1" xmlns="http://www.w3.org/2000/svg" xmlns:xlink="http://www.w3.org/1999/xlink" viewBox="0 0 77 18"><defs><style>.cls-1{fill:#e1d8b7;}.cls-2{fill:#fff;}.cls-3{fill:#9fe55c;}</style><symbol id="Logotype" data-name="Logotype" viewBox="0 0 57 14"><polygon points="57 8 57 4 54 4 54 1 50 1 50 4 49 4 49 1 45 1 45 4 42 4 42 6 40 6 40 4 37 4 37 0 33 0 33 4 10 4 10 0 0 0 0 13 1 13 1 14 22 14 22 12 24 12 24 14 49 14 49 13 49 12 50 12 50 13 51 13 51 14 57 14 57 10 54 10 54 8 57 8"/><g id="Logotype_Inverse-2" data-name="Logotype Inverse"><polygon class="cls-1" points="1 1 1 12 2 12 2 13 9 13 9 9 7 9 7 11 3 11 3 3 7 3 7 5 9 5 9 1 1 1"/><path class="cls-1" d="M10,5v8h8V5Zm6,6H12V7h4Z"/><polygon class="cls-1" points="26 6 26 5 19 5 19 13 21 13 21 7 25 7 25 13 27 13 27 6 26 6"/><polygon class="cls-1" points="43 5 43 11 39 11 39 5 37 5 37 12 38 12 38 13 45 13 45 5 43 5"/><polygon class="cls-1" points="46 13 48 13 48 5 46 5 46 13"/><polygon class="cls-1" points="56 7 56 5 53 5 53 2 51 2 51 5 49 5 49 7 51 7 51 12 52 12 52 13 56 13 56 11 53 11 53 7 56 7"/><path class="cls-1" d="M34,1V5H28v8h8V1Zm0,10H30V7h4Z"/><polygon class="cls-1" points="46 4 48 4 48 2 46 2 46 4"/><polygon class="cls-1" points="14 9 14 10 15 10 15 8 13 8 13 9 14 9"/></g><polygon class="cls-2" points="13 8 13 9 14 9 14 10 15 10 15 8 13 8"/><path class="cls-3" d="M46,7"/></symbol><symbol id="Logo" data-name="Logo" viewBox="0 0 16 16"><rect class="cls-1" width="16" height="16"/><polygon points="1 1 1 5 2 5 2 8 6 8 6 10 8 10 8 11 7 11 7 15 11 15 11 14 14 14 14 2 5 2 5 1 1 1"/><polygon class="cls-2" points="7 7 7 8 8 8 8 9 9 9 9 7 7 7"/><polygon class="cls-2" points="2 4 3 4 3 3 4 3 4 2 2 2 2 4"/><polygon class="cls-2" points="10 14 10 13 9 13 9 12 8 12 8 14 10 14"/><polygon class="cls-1" points="5 3 5 5 3 5 3 7 6 7 6 6 10 6 10 10 9 10 9 11 11 11 11 13 13 13 13 3 5 3"/></symbol><symbol id="Logo_Border" data-name="Logo Border" viewBox="0 0 18 18"><rect width="18" height="18"/><use width="16" height="16" transform="translate(1 1)" xlink:href="#Logo"/></symbol></defs><title>conduit-logo</title><use width="57" height="14" transform="translate(20 2)" xlink:href="#Logotype"/><use width="18" height="18" xlink:href="#Logo_Border"/></svg>
