<svg id="Layer_1" data-name="Layer 1" xmlns="http://www.w3.org/2000/svg" xmlns:xlink="http://www.w3.org/1999/xlink" viewBox="0 0 77 18"><defs><style>.cls-1{fill:#e1d8b7}.cls-2{fill:#fff}</style><symbol id="Logotype" data-name="Logotype" viewBox="0 0 57 14"><path d="M57 8V4h-3V1h-4v3h-1V1h-4v3h-3v2h-2V4h-3V0h-4v4H10V0H0v13h1v1h21v-2h2v2h25v-2h1v1h1v1h6v-4h-3V8h3z"/><g id="Logotype_Inverse-2" data-name="Logotype Inverse"><path class="cls-1" d="M1 1v11h1v1h7V9H7v2H3V3h4v2h2V1H1zm9 4v8h8V5zm6 6h-4V7h4zm10-5V5h-7v8h2V7h4v6h2V6h-1zm17-1v6h-4V5h-2v7h1v1h7V5h-2zm3 8h2V5h-2v8zm10-6V5h-3V2h-2v3h-2v2h2v5h1v1h4v-2h-3V7h3zM34 1v4h-6v8h8V1zm0 10h-4V7h4zm12-7h2V2h-2v2z"/><path class="cls-1" d="M14 9v1h1V8h-2v1h1z"/></g><path class="cls-2" d="M13 8v1h1v1h1V8h-2z"/></symbol><symbol id="Logo" data-name="Logo" viewBox="0 0 16 16"><path class="cls-1" d="M0 0h16v16H0z"/><path d="M1 1v4h1v3h4v2h2v1H7v4h4v-1h3V2H5V1H1z"/><path class="cls-2" d="M7 7v1h1v1h1V7H7zM2 4h1V3h1V2H2v2zm8 10v-1H9v-1H8v2h2z"/><path class="cls-1" d="M5 3v2H3v2h3V6h4v4H9v1h2v2h2V3H5z"/></symbol><symbol id="Logo_Border" data-name="Logo Border" viewBox="0 0 18 18"><path d="M0 0h18v18H0z"/><use width="16" height="16" transform="translate(1 1)" xlink:href="#Logo"/></symbol></defs><use width="57" height="14" transform="translate(20 2)" xlink:href="#Logotype"/><use width="18" height="18" xlink:href="#Logo_Border"/></svg>width="18" height="18" xlink:href="#Logo_Border"/></svg>
